<svg width="326" height="243" viewBox="0 0 326 243" fill="none" xmlns="http://www.w3.org/2000/svg">
<path d="M326 213.497H0V213.66H326V213.497Z" fill="#E6E6E6"/>
<path d="M81.3833 223.364H59.7891V223.527H81.3833V223.364Z" fill="#E6E6E6"/>
<path d="M52.9552 223.364H40.4434V223.527H52.9552V223.364Z" fill="#E6E6E6"/>
<path d="M137.279 225.763H124.768V225.926H137.279V225.763Z" fill="#E6E6E6"/>
<path d="M202.517 229.401H174.357V229.564H202.517V229.401Z" fill="#E6E6E6"/>
<path d="M168.555 229.401H164.428V229.564H168.555V229.401Z" fill="#E6E6E6"/>
<path d="M295.583 225.763H234.504V225.926H295.583V225.763Z" fill="#E6E6E6"/>
<path d="M154.523 184.418H28.6285C27.6423 184.416 26.697 184.023 26.0002 183.325C25.3034 182.627 24.9121 181.682 24.9121 180.695V3.72292C24.9121 2.73667 25.3034 1.79072 26.0002 1.09272C26.697 0.394725 27.6423 0.00172723 28.6285 0L154.523 0C155.511 0 156.458 0.392235 157.156 1.09042C157.854 1.7886 158.246 2.73554 158.246 3.72292V180.695C158.246 181.184 158.15 181.668 157.963 182.12C157.776 182.572 157.501 182.982 157.156 183.328C156.81 183.673 156.4 183.948 155.948 184.135C155.496 184.322 155.012 184.418 154.523 184.418ZM28.6285 0.163C27.6855 0.164727 26.7817 0.540551 26.1155 1.20798C25.4493 1.87541 25.0751 2.7799 25.0751 3.72292V180.695C25.0751 181.638 25.4493 182.543 26.1155 183.21C26.7817 183.878 27.6855 184.253 28.6285 184.255H154.523C155.467 184.253 156.371 183.878 157.039 183.211C157.706 182.543 158.081 181.639 158.083 180.695V3.72292C158.081 2.7793 157.706 1.87482 157.039 1.20758C156.371 0.540339 155.467 0.164724 154.523 0.163H28.6285Z" fill="#E6E6E6"/>
<path d="M295.558 184.418H169.657C168.67 184.416 167.724 184.024 167.026 183.326C166.328 182.628 165.935 181.682 165.934 180.695V3.72292C165.935 2.73607 166.328 1.79013 167.026 1.09232C167.724 0.394512 168.67 0.00172376 169.657 0L295.558 0C296.543 0.00345052 297.486 0.397208 298.182 1.09502C298.877 1.79283 299.268 2.7378 299.268 3.72292V180.695C299.268 181.68 298.877 182.625 298.182 183.323C297.486 184.021 296.543 184.415 295.558 184.418ZM169.657 0.163C168.713 0.164724 167.808 0.540339 167.141 1.20758C166.474 1.87482 166.098 2.7793 166.097 3.72292V180.695C166.098 181.639 166.474 182.543 167.141 183.211C167.808 183.878 168.713 184.253 169.657 184.255H295.558C296.501 184.253 297.406 183.878 298.073 183.211C298.74 182.543 299.116 181.639 299.118 180.695V3.72292C299.116 2.7793 298.74 1.87482 298.073 1.20758C297.406 0.540339 296.501 0.164724 295.558 0.163H169.657Z" fill="#E6E6E6"/>
<path d="M174.345 157.796H160.008V214.67H174.345V157.796Z" fill="#E0E0E0"/>
<path d="M171.619 214.674H174.345V206.928H168.764L171.619 214.674Z" fill="#FAFAFA"/>
<path d="M111.517 157.796H97.1797V214.67H111.517V157.796Z" fill="#E0E0E0"/>
<path d="M174.345 157.796H109.145V209.917H174.345V157.796Z" fill="#FAFAFA"/>
<path d="M171.979 160.392V174.188H111.493V160.392H171.959H171.979ZM172.213 160.144H111.258V174.436H172.233V160.111L172.213 160.144Z" fill="#E0E0E0"/>
<path d="M111.863 214.674H109.145V206.928H114.719L111.863 214.674Z" fill="#FAFAFA"/>
<path d="M140.305 167.255C140.305 167.54 140.389 167.818 140.548 168.055C140.706 168.292 140.931 168.477 141.194 168.586C141.457 168.695 141.747 168.724 142.027 168.668C142.306 168.613 142.563 168.475 142.764 168.274C142.966 168.072 143.103 167.816 143.159 167.536C143.214 167.256 143.186 166.967 143.077 166.703C142.968 166.44 142.783 166.215 142.546 166.057C142.309 165.898 142.031 165.814 141.746 165.814C141.363 165.814 140.997 165.966 140.727 166.236C140.456 166.506 140.305 166.873 140.305 167.255Z" fill="#E6E6E6"/>
<path d="M171.979 176.966V190.756H111.493V176.966H171.959H171.979ZM172.213 176.718H111.258V191.036H172.233V176.692L172.213 176.718Z" fill="#E0E0E0"/>
<path d="M140.305 183.862C140.305 184.147 140.389 184.426 140.548 184.663C140.706 184.9 140.931 185.084 141.194 185.193C141.457 185.302 141.747 185.331 142.027 185.275C142.306 185.22 142.563 185.083 142.764 184.881C142.966 184.68 143.103 184.423 143.159 184.143C143.214 183.864 143.186 183.574 143.077 183.311C142.968 183.047 142.783 182.822 142.546 182.664C142.309 182.506 142.031 182.421 141.746 182.421C141.363 182.421 140.997 182.573 140.727 182.843C140.456 183.114 140.305 183.48 140.305 183.862Z" fill="#E6E6E6"/>
<path d="M171.979 193.572V207.336H111.493V193.572H171.959H171.979ZM172.213 193.318H111.258V207.616H172.233V193.318H172.213Z" fill="#E0E0E0"/>
<path d="M140.305 200.465C140.305 200.75 140.389 201.029 140.548 201.266C140.706 201.503 140.931 201.688 141.194 201.797C141.457 201.906 141.747 201.934 142.027 201.879C142.306 201.823 142.563 201.686 142.764 201.484C142.966 201.283 143.103 201.026 143.159 200.746C143.214 200.467 143.186 200.177 143.077 199.914C142.968 199.651 142.783 199.426 142.546 199.267C142.309 199.109 142.031 199.024 141.746 199.024C141.363 199.024 140.997 199.176 140.727 199.446C140.456 199.717 140.305 200.083 140.305 200.465Z" fill="#E6E6E6"/>
<path d="M102.761 124.766H88.4238V214.677H102.761V124.766Z" fill="#E0E0E0"/>
<path d="M100.037 214.674H102.762V206.928H97.1875L100.037 214.674Z" fill="#FAFAFA"/>
<path d="M49.1812 124.766H34.8438V214.677H49.1812V124.766Z" fill="#E0E0E0"/>
<path d="M102.762 124.766H46.8008V209.923H102.762V124.766Z" fill="#FAFAFA"/>
<path d="M100.35 127.177V146.457H49.2134V127.177H100.35ZM100.65 126.884H48.9004V146.757H100.637V126.884H100.65Z" fill="#E0E0E0"/>
<path d="M100.349 148.808V199.945H75.9907V148.808H100.349ZM100.649 148.508H75.6973V200.245H100.649V148.508Z" fill="#E0E0E0"/>
<path d="M73.5721 148.808V199.945H49.2134V148.808H73.5721ZM73.8655 148.508H48.9004V200.245H73.8524V148.508H73.8655Z" fill="#E0E0E0"/>
<path d="M49.5261 214.674H46.8008V206.928H52.3819L49.5261 214.674Z" fill="#FAFAFA"/>
<path d="M73.336 136.821C73.3347 137.108 73.4185 137.388 73.5767 137.627C73.735 137.866 73.9606 138.053 74.2249 138.163C74.4893 138.274 74.7805 138.303 75.0618 138.248C75.343 138.193 75.6015 138.056 75.8046 137.853C76.0076 137.651 76.1461 137.393 76.2025 137.112C76.2589 136.832 76.2306 136.54 76.1213 136.275C76.0119 136.01 75.8264 135.784 75.5882 135.625C75.3501 135.465 75.0699 135.38 74.7834 135.38C74.4006 135.38 74.0335 135.532 73.7622 135.802C73.4909 136.072 73.3377 136.438 73.336 136.821Z" fill="#E6E6E6"/>
<path d="M78.5 173.152C78.4987 173.438 78.5827 173.719 78.7412 173.958C78.8998 174.197 79.1258 174.384 79.3905 174.494C79.6553 174.604 79.9468 174.634 80.2282 174.578C80.5096 174.522 80.7681 174.384 80.9709 174.182C81.1738 173.979 81.3117 173.72 81.3674 173.439C81.423 173.157 81.3938 172.866 81.2835 172.601C81.1731 172.336 80.9866 172.11 80.7475 171.952C80.5085 171.793 80.2278 171.709 79.9409 171.711C79.5588 171.711 79.1923 171.862 78.922 172.133C78.6518 172.403 78.5 172.769 78.5 173.152Z" fill="#E6E6E6"/>
<path d="M68.1797 173.152C68.1797 173.436 68.2642 173.715 68.4225 173.952C68.5809 174.189 68.8059 174.374 69.0692 174.483C69.3325 174.592 69.6222 174.62 69.9017 174.565C70.1812 174.509 70.438 174.372 70.6395 174.17C70.841 173.969 70.9782 173.712 71.0338 173.433C71.0894 173.153 71.0609 172.863 70.9518 172.6C70.8428 172.337 70.6581 172.112 70.4211 171.953C70.1842 171.795 69.9056 171.711 69.6206 171.711C69.2385 171.711 68.8719 171.862 68.6017 172.133C68.3315 172.403 68.1797 172.769 68.1797 173.152Z" fill="#E6E6E6"/>
<path d="M66.5503 99.7012H60.5063C61.0633 102.633 61.414 105.6 61.556 108.581C61.556 111.841 56.9529 124.764 63.512 124.764C70.0711 124.764 65.468 111.867 65.468 108.581C65.6207 105.6 65.9824 102.632 66.5503 99.7012Z" fill="#E0E0E0"/>
<path d="M43.5527 112.926V116.838C43.5596 118.935 44.3957 120.944 45.8787 122.427C47.3616 123.91 49.3709 124.746 51.468 124.753H55.38C57.4777 124.748 59.488 123.912 60.9713 122.429C62.4545 120.945 63.2901 118.935 63.2953 116.838V112.926H43.5527Z" fill="#F5F5F5"/>
<path d="M127.576 149.51C127.576 154.074 132.681 157.797 138.921 157.797H144.554C150.794 157.797 155.899 154.067 155.899 149.51H127.576Z" fill="#E0E0E0"/>
<path d="M276.846 142.839C273.43 145.623 268.709 150.735 264.393 157.914C261.511 162.699 259.777 167.694 259.014 174.338C259.014 166.84 259.06 158.787 259.086 151.185C259.953 149.229 261.935 144.717 263.356 141.157C268.096 129.265 269.876 126.344 274.134 116.094C279.826 102.402 285.655 86.1936 283.986 87.4846C280.582 90.1317 267.542 114.549 266.134 118.044C262.295 127.37 259.922 137.234 259.099 147.286C259.099 140.114 259.151 133.594 259.177 128.528C259.268 112.032 259.549 106.706 259.685 105.056C260.214 104.221 260.833 103.25 261.198 102.722C264.263 98.2947 265.443 94.5197 268.324 87.9149C272.419 78.5522 275.94 61.9327 274.91 62.7738C270.62 66.262 267.242 73.7665 262.796 83.3313C258.349 92.8962 259.62 98.386 258.74 106.556C258.558 108.159 258.414 114.204 258.31 122.588C257.162 113.656 254.998 107.775 251.053 102.428C246.202 95.8497 241.508 91.4031 238.065 89.0885C234.623 86.7739 244.011 102.924 248.497 109.952C252.494 116.231 256.178 121.773 258.277 127.23C258.166 138.588 258.114 152.971 258.114 166.35C257.084 160.254 255.402 153.695 253.159 148.616C250.46 142.513 246.313 133.151 243.007 129.969C242.218 129.206 246.463 147.416 249.188 152.261C251.914 157.105 253.915 161.669 255.63 164.414C256.028 165.066 257.358 167.524 258.114 168.978C258.114 185.324 258.205 199.746 258.349 204.656H259.053C259.007 203.384 258.994 195.071 259.014 184.065C260.716 178.093 264.602 171.273 267.809 165.053C271.304 158.266 280.263 140.049 276.846 142.839Z" fill="#E0E0E0"/>
<path d="M268.911 214.678H248.477L246.932 194.648H270.456L268.911 214.678Z" fill="#F0F0F0"/>
<path d="M271.976 196.981H245.407L244.65 190.22H272.739L271.976 196.981Z" fill="#F5F5F5"/>
<path d="M81.0173 13.396H44.4727V53.5266H81.0173V13.396Z" fill="#E0E0E0"/>
<path d="M84.9754 13.396H47.2246V53.5266H84.9754V13.396Z" fill="#F5F5F5"/>
<path d="M81.8125 50.3699V16.5637L50.3861 16.5637V50.3699H81.8125Z" fill="white"/>
<path d="M74.1973 42.1632V24.7483H58.0081V42.1632H74.1973Z" fill="#F5F5F5"/>
<path d="M267.352 18.0745H233.402V55.3558H267.352V18.0745Z" fill="#E0E0E0"/>
<path d="M271.029 18.0745H235.965V55.3558H271.029V18.0745Z" fill="#F5F5F5"/>
<path d="M268.096 52.4141V21.0138L238.906 21.0138V52.4141H268.096Z" fill="white"/>
<path d="M253.497 45.8214C258.528 45.8214 262.606 41.7434 262.606 36.7129C262.606 31.6825 258.528 27.6045 253.497 27.6045C248.467 27.6045 244.389 31.6825 244.389 36.7129C244.389 41.7434 248.467 45.8214 253.497 45.8214Z" fill="#F5F5F5"/>
<path d="M118.983 37.318H91.873V67.0883H118.983V37.318Z" fill="#E0E0E0"/>
<path d="M121.917 37.318H93.9141V67.0883H121.917V37.318Z" fill="#F5F5F5"/>
<path d="M119.57 64.74V39.6641H96.2613V64.74H119.57Z" fill="white"/>
<path d="M107.92 45.8679L101.543 56.9128H114.296L107.92 45.8679Z" fill="#F5F5F5"/>
<path d="M163 242.941C232.818 242.941 289.417 239.637 289.417 235.561C289.417 231.484 232.818 228.18 163 228.18C93.1825 228.18 36.584 231.484 36.584 235.561C36.584 239.637 93.1825 242.941 163 242.941Z" fill="#F5F5F5"/>
<path d="M227.71 70.7334L221.243 68.1254C221.243 68.1254 212.708 83.6886 210.263 84.471C206.938 85.5403 200.053 88.5134 195.971 89.0741C195.417 89.7261 194.511 91.7473 194.595 92.4906C200.079 94.3162 212.128 91.8908 214.71 89.9739C220.584 85.5924 227.71 70.7334 227.71 70.7334Z" fill="#E58A7B"/>
<path d="M229.698 67.2032C230.904 71.6629 224.371 80.6214 224.371 80.6214L215.811 75.8096C215.811 75.8096 217.414 72.1258 219.37 68.3768C222.507 62.3197 228.322 62.1176 229.698 67.2032Z" fill="#407BFF"/>
<path opacity="0.2" d="M229.698 67.2032C230.904 71.6629 224.371 80.6214 224.371 80.6214L215.811 75.8096C215.811 75.8096 217.414 72.1258 219.37 68.3768C222.507 62.3197 228.322 62.1176 229.698 67.2032Z" fill="black"/>
<path opacity="0.2" d="M219.209 77.7236L222.58 79.6079L223.173 69.2672C221.211 70.7733 219.828 75.3112 219.209 77.7236Z" fill="black"/>
<path d="M224.067 63.8433C224.067 63.8433 217.403 78.6698 221.289 106.282H247.545C247.962 102.253 246.58 82.5883 251.581 63.5956C248.7 63.0366 245.786 62.6663 242.857 62.4872C239.142 62.2719 235.417 62.2719 231.702 62.4872C229.126 62.7466 226.574 63.1999 224.067 63.8433Z" fill="#407BFF"/>
<path opacity="0.2" d="M224.067 63.8433C224.067 63.8433 217.403 78.6698 221.289 106.282H247.545C247.962 102.253 246.58 82.5883 251.581 63.5956C248.7 63.0366 245.786 62.6663 242.857 62.4872C239.142 62.2719 235.417 62.2719 231.702 62.4872C229.126 62.7466 226.574 63.1999 224.067 63.8433Z" fill="black"/>
<g style="mix-blend-mode:multiply">
<path d="M217.977 236.155C217.938 236.853 227.894 237.42 240.21 237.42C252.526 237.42 262.554 236.853 262.593 236.155C262.632 235.458 252.683 234.884 240.36 234.884C228.037 234.884 218.022 235.458 217.977 236.155Z" fill="#E8ECF1"/>
</g>
<path d="M235.489 217.766L230.832 219.568L234.843 229.931L239.5 228.128L235.489 217.766Z" fill="#E58A7B"/>
<path d="M256.268 231.139H251.358L249.559 219.774H254.468L256.268 231.139Z" fill="#E58A7B"/>
<path d="M251.02 230.574H256.536C256.631 230.572 256.723 230.605 256.796 230.666C256.869 230.727 256.918 230.812 256.933 230.906L257.644 235.275C257.659 235.384 257.65 235.495 257.618 235.601C257.586 235.707 257.532 235.805 257.459 235.887C257.386 235.97 257.296 236.037 257.195 236.082C257.095 236.127 256.985 236.149 256.875 236.148C254.951 236.109 254.025 235.998 251.6 235.998C250.107 235.998 247.036 236.155 244.963 236.155C242.889 236.155 242.752 234.114 243.606 233.932C247.44 233.104 248.927 231.976 250.205 230.874C250.432 230.68 250.721 230.574 251.02 230.574Z" fill="#263238"/>
<path d="M234.719 228.857L239.935 227.337C240.027 227.308 240.127 227.312 240.216 227.349C240.306 227.386 240.379 227.454 240.424 227.54L242.38 231.452C242.425 231.551 242.449 231.659 242.448 231.768C242.447 231.877 242.423 231.985 242.376 232.084C242.33 232.182 242.262 232.27 242.178 232.339C242.095 232.409 241.996 232.46 241.891 232.488C239.994 233.003 238.722 233.329 236.349 234.02C234.712 234.496 233.043 235.272 231.426 235.787C230.305 236.146 227.671 236.159 226.308 236.159C224.294 236.159 223.844 234.033 224.711 233.936C226.895 233.688 227.188 233.805 228.395 233.199C230.367 232.334 232.155 231.099 233.663 229.561C233.949 229.24 234.313 228.997 234.719 228.857Z" fill="#263238"/>
<path d="M196.792 89.0133L191.393 86.7183L189.17 92.7036C191.383 93.0407 193.634 93.0407 195.846 92.7036L196.792 89.0133Z" fill="#E58A7B"/>
<path d="M187.378 86.595L187.234 90.5722L189.171 92.7238L191.394 86.7384L187.378 86.595Z" fill="#E58A7B"/>
<path d="M236.14 218.538L231.469 220.341L233.538 225.7L238.209 223.896L236.14 218.538Z" fill="#CF6F64"/>
<path d="M254.468 219.774H249.559L250.491 225.636H255.401L254.468 219.774Z" fill="#CF6F64"/>
<path opacity="0.2" d="M220.453 98.801C220.551 99.9811 220.662 101.187 220.805 102.426L240.326 96.0886C243.38 95.1817 246.031 93.2557 247.837 90.6314C247.915 88.8906 248.013 87.0584 248.163 85.1481C248.228 84.2157 248.307 83.2638 248.391 82.2988C248.476 81.3339 248.593 80.2711 248.717 79.241L220.453 98.801Z" fill="black"/>
<path d="M226.83 77.4234L226.178 77.3386C226.562 74.0786 228.994 71.5163 231.557 71.575V72.227C229.314 72.1813 227.175 74.5024 226.83 77.4234Z" fill="white"/>
<path d="M230.306 83.4597H230.195V82.8077C232.438 82.8924 234.544 80.5518 234.89 77.6373L235.542 77.7156C235.196 80.8843 232.842 83.4597 230.306 83.4597Z" fill="white"/>
<path d="M242.491 49.9097C241.572 53.5022 240.489 60.0809 242.856 62.4802C242.856 62.4802 241.2 66.1249 234.53 66.1249C228.434 66.1249 231.7 62.4802 231.7 62.4802C235.756 61.5218 235.827 58.5682 235.293 55.7646L242.491 49.9097Z" fill="#E58A7B"/>
<path d="M239.556 52.3042L235.299 55.7598C235.43 56.4041 235.507 57.0585 235.527 57.7158C236.772 58.9546 239.269 55.8185 239.524 54.2146C239.652 53.5852 239.663 52.9376 239.556 52.3042Z" fill="#CF6F64"/>
<path d="M227.978 49.8715C228.274 50.385 228.673 50.8316 229.15 51.1829C229.627 51.5341 230.171 51.7825 230.749 51.9122C232.314 52.2643 233.097 50.8234 232.666 49.376C232.282 48.072 230.997 46.3181 229.406 46.618C229.066 46.6882 228.747 46.839 228.476 47.0579C228.206 47.2767 227.991 47.5571 227.852 47.8757C227.712 48.1943 227.65 48.5418 227.672 48.889C227.694 49.2363 227.799 49.5732 227.978 49.8715Z" fill="#CF6F64"/>
<path d="M230.566 38.3755C228.128 39.4904 227.267 49.1791 230.332 50.6135C233.396 52.0479 235.182 36.2565 230.566 38.3755Z" fill="#263238"/>
<path d="M243.234 44.509C242.647 49.3664 242.582 52.2287 239.974 54.7258C239.166 55.5523 238.145 56.1394 237.024 56.4223C235.904 56.7052 234.726 56.6728 233.623 56.3288C232.519 55.9848 231.532 55.3425 230.771 54.4728C230.009 53.6031 229.503 52.5399 229.307 51.4006C228.519 47.0322 229.607 39.8146 234.484 37.8781C235.509 37.4262 236.636 37.2565 237.748 37.3867C238.861 37.5169 239.918 37.9423 240.811 38.6187C241.703 39.2952 242.399 40.198 242.825 41.2337C243.251 42.2694 243.392 43.4002 243.234 44.509Z" fill="#E58A7B"/>
<path d="M235.221 40.8923C238.833 39.973 241.487 39.3406 240.535 42.3528C239.277 46.3626 237.764 50.2485 239.792 50.4311C241.031 50.5419 246.507 48.2208 245.81 45.8671C245.203 43.8198 247.766 43.2591 248.222 42.2224C249.911 38.4669 245.08 38.9624 245.94 36.6804C246.801 34.3984 242.028 30.7211 239.42 32.5467C235.176 35.5068 227.893 35.4677 231.72 30.5907C234.465 27.1156 229.568 27.8262 229.568 27.8262C229.568 27.8262 232.529 29.5801 227.547 32.2924C222.279 35.2134 227.11 42.9722 235.221 40.8923Z" fill="#263238"/>
<path d="M245.151 49.8715C244.439 50.9036 243.367 51.6317 242.145 51.9122C240.535 52.2643 239.915 50.8234 240.522 49.376C241.063 48.072 242.549 46.3181 244.088 46.618C245.627 46.9179 245.979 48.5936 245.151 49.8715Z" fill="#E58A7B"/>
<path d="M221.288 106.278C221.288 106.278 216.881 145.717 216.535 160.687C216.183 176.264 231.473 224.844 231.473 224.844L239.297 221.584C239.297 221.584 230.169 177.203 231.473 161.913C232.835 145.202 238.547 106.278 238.547 106.278H221.288Z" fill="#407BFF"/>
<path opacity="0.2" d="M232.243 117.102C228.728 124.392 231.095 138.801 232.999 147.349C233.723 141.318 234.583 134.772 235.398 128.714C235.32 119.397 234.596 112.212 232.243 117.102Z" fill="black"/>
<path d="M238.951 218.993C238.99 218.993 239.877 221.49 239.877 221.49L230.853 225.278L229.432 222.638L238.951 218.993Z" fill="#407BFF"/>
<path d="M230.605 106.278C230.605 106.278 233.976 143.794 236.206 157.845C238.658 173.238 248.268 224.505 248.268 224.505H257.259C257.259 224.505 251.874 174.477 250.857 159.24C249.748 142.705 247.544 106.278 247.544 106.278H230.605Z" fill="#407BFF"/>
<path d="M257.396 222.154C257.435 222.154 257.696 224.671 257.696 224.671H247.812L247.107 221.783L257.396 222.154Z" fill="#407BFF"/>
<path opacity="0.2" d="M253.954 219.189C253.933 219.189 253.914 219.182 253.898 219.169C253.883 219.156 253.872 219.137 253.869 219.117C253.817 218.661 248.96 173.477 248.047 159.785C247.056 144.926 245.061 111.987 245.041 111.655C245.041 111.633 245.049 111.611 245.063 111.594C245.077 111.578 245.097 111.567 245.119 111.563C245.141 111.565 245.162 111.574 245.178 111.59C245.193 111.605 245.202 111.626 245.204 111.648C245.204 111.974 247.219 144.9 248.21 159.772C249.123 173.464 253.98 218.622 254.026 219.104C254.027 219.115 254.027 219.126 254.024 219.137C254.022 219.147 254.017 219.157 254.01 219.166C254.003 219.174 253.995 219.181 253.985 219.187C253.975 219.192 253.965 219.195 253.954 219.196V219.189Z" fill="black"/>
<path d="M235.777 45.8687C235.777 46.2664 235.529 46.5859 235.268 46.5859C235.007 46.5859 234.818 46.2664 234.844 45.8687C234.87 45.471 235.092 45.1515 235.353 45.1515C235.614 45.1515 235.803 45.471 235.777 45.8687Z" fill="#263238"/>
<path d="M231.304 45.8687C231.304 46.2664 231.049 46.5859 230.795 46.5859C230.541 46.5859 230.345 46.2664 230.365 45.8687C230.384 45.471 230.619 45.1515 230.88 45.1515C231.14 45.1515 231.33 45.471 231.304 45.8687Z" fill="#263238"/>
<path d="M232.711 46.0609C232.168 47.2777 231.466 48.4177 230.625 49.4513C231.277 50.1033 232.496 49.8034 232.496 49.8034L232.711 46.0609Z" fill="#DF5753"/>
<path d="M232.828 51.4646C232.813 51.4646 232.798 51.4615 232.784 51.4556C232.77 51.4496 232.757 51.4408 232.747 51.4298C232.737 51.4189 232.729 51.4059 232.723 51.3916C232.718 51.3774 232.716 51.3623 232.717 51.3472C232.719 51.3155 232.732 51.2857 232.756 51.2638C232.779 51.242 232.809 51.2298 232.841 51.2299C233.34 51.2333 233.833 51.125 234.284 50.9129C234.735 50.7008 235.133 50.3902 235.449 50.0041C235.471 49.983 235.5 49.9712 235.53 49.9712C235.561 49.9712 235.59 49.983 235.612 50.0041C235.623 50.0145 235.632 50.0271 235.638 50.0411C235.644 50.0551 235.648 50.0703 235.648 50.0856C235.648 50.1009 235.644 50.1161 235.638 50.1301C235.632 50.1441 235.623 50.1567 235.612 50.1671C235.274 50.5775 234.849 50.907 234.367 51.1316C233.885 51.3561 233.359 51.4699 232.828 51.4646Z" fill="#263238"/>
<path d="M236.57 44.6626C236.539 44.6786 236.504 44.687 236.469 44.687C236.434 44.687 236.399 44.6786 236.368 44.6626C236.127 44.5034 235.853 44.4033 235.566 44.3705C235.279 44.3376 234.989 44.3729 234.719 44.4735C234.692 44.4875 234.663 44.4958 234.632 44.4977C234.602 44.4997 234.572 44.4953 234.544 44.4849C234.516 44.4744 234.49 44.4581 234.468 44.4371C234.447 44.416 234.43 44.3907 234.419 44.3627C234.395 44.3056 234.394 44.2414 234.417 44.184C234.441 44.1266 234.486 44.0807 234.543 44.0562C234.883 43.917 235.253 43.8621 235.619 43.8962C235.986 43.9302 236.339 44.0522 236.648 44.2518C236.673 44.2688 236.695 44.2906 236.711 44.3159C236.728 44.3413 236.739 44.3696 236.745 44.3993C236.75 44.429 236.75 44.4595 236.743 44.4891C236.737 44.5186 236.724 44.5466 236.707 44.5713C236.675 44.6187 236.626 44.6515 236.57 44.6626Z" fill="#263238"/>
<path d="M229.576 43.3636C229.542 43.3527 229.511 43.3349 229.485 43.3114C229.463 43.2901 229.446 43.2648 229.434 43.2368C229.422 43.2088 229.416 43.1788 229.416 43.1484C229.416 43.118 229.422 43.088 229.434 43.06C229.446 43.032 229.463 43.0066 229.485 42.9854C229.733 42.7035 230.044 42.4836 230.393 42.3433C230.741 42.2029 231.118 42.1459 231.493 42.1769C231.522 42.1807 231.551 42.1907 231.577 42.2062C231.602 42.2217 231.624 42.2424 231.642 42.2669C231.659 42.2915 231.671 42.3194 231.676 42.3488C231.682 42.3782 231.682 42.4085 231.675 42.4377C231.663 42.4988 231.627 42.5529 231.577 42.5891C231.526 42.6254 231.463 42.6412 231.401 42.6333C231.105 42.6146 230.809 42.6637 230.534 42.7766C230.26 42.8896 230.014 43.0635 229.817 43.2853C229.788 43.3189 229.75 43.3439 229.707 43.3576C229.665 43.3714 229.619 43.3735 229.576 43.3636Z" fill="#263238"/>
<path d="M254.104 70.0037L247.323 68.2042C247.323 68.2042 240.673 84.5694 238.319 85.6387C235.124 87.0927 227.033 92.1261 223.59 94.5515C223.401 95.36 223.551 97.5247 223.981 98.1115C229.849 97.0487 241.083 92.7259 243.431 90.5287C248.783 85.5148 254.104 70.0037 254.104 70.0037Z" fill="#E58A7B"/>
<path d="M249.37 231.424C249.04 231.452 248.71 231.365 248.438 231.177C248.354 231.101 248.291 231.004 248.255 230.897C248.22 230.789 248.213 230.675 248.236 230.564C248.241 230.494 248.264 230.426 248.302 230.368C248.341 230.31 248.395 230.263 248.457 230.231C249.005 229.957 250.537 230.929 250.713 231.04C250.732 231.052 250.747 231.07 250.756 231.091C250.764 231.112 250.765 231.135 250.759 231.157C250.754 231.18 250.743 231.2 250.727 231.216C250.711 231.233 250.69 231.244 250.667 231.248C250.243 231.356 249.808 231.415 249.37 231.424ZM248.718 230.414C248.669 230.403 248.617 230.403 248.568 230.414C248.543 230.426 248.522 230.446 248.508 230.47C248.495 230.495 248.488 230.523 248.49 230.551C248.473 230.627 248.476 230.705 248.499 230.78C248.522 230.854 248.564 230.921 248.62 230.974C249.166 231.224 249.787 231.254 250.355 231.059C249.852 230.734 249.289 230.514 248.698 230.414H248.718Z" fill="#407BFF"/>
<path d="M250.634 231.255H250.582C250.093 230.981 249.174 229.906 249.311 229.358C249.33 229.27 249.379 229.192 249.449 229.137C249.519 229.081 249.606 229.051 249.695 229.051C249.783 229.038 249.872 229.045 249.957 229.071C250.041 229.097 250.119 229.141 250.184 229.201C250.725 229.664 250.758 231.086 250.758 231.157C250.76 231.179 250.756 231.2 250.745 231.219C250.735 231.237 250.719 231.252 250.699 231.262C250.677 231.266 250.655 231.264 250.634 231.255ZM249.761 229.267H249.715C249.565 229.267 249.545 229.358 249.539 229.384C249.461 229.71 250.041 230.525 250.523 230.903C250.519 230.353 250.349 229.816 250.034 229.364C249.957 229.301 249.86 229.266 249.761 229.267Z" fill="#407BFF"/>
<path d="M232.06 230.618C231.661 230.757 231.227 230.757 230.828 230.618C230.738 230.566 230.663 230.493 230.607 230.406C230.552 230.319 230.518 230.219 230.508 230.116C230.501 230.052 230.51 229.987 230.534 229.926C230.558 229.866 230.596 229.813 230.645 229.771C231.167 229.308 233.299 229.81 233.54 229.868C233.562 229.874 233.581 229.887 233.595 229.904C233.61 229.922 233.618 229.944 233.618 229.966C233.621 229.991 233.616 230.016 233.603 230.037C233.59 230.059 233.57 230.075 233.547 230.084C233.068 230.306 232.57 230.484 232.06 230.618ZM230.997 229.842C230.924 229.858 230.855 229.889 230.795 229.934C230.774 229.95 230.758 229.973 230.748 229.998C230.739 230.023 230.737 230.051 230.743 230.077C230.746 230.145 230.768 230.211 230.804 230.268C230.841 230.325 230.892 230.372 230.952 230.403C231.297 230.592 232.099 230.442 233.136 230.012C232.437 229.836 231.715 229.779 230.997 229.842Z" fill="#407BFF"/>
<path d="M233.526 230.089H233.474C232.822 229.971 231.518 229.222 231.479 228.661C231.479 228.531 231.537 228.348 231.85 228.244C231.956 228.204 232.068 228.188 232.18 228.194C232.293 228.201 232.402 228.231 232.502 228.283C233.206 228.628 233.578 229.88 233.598 229.932C233.602 229.953 233.601 229.975 233.596 229.995C233.59 230.015 233.579 230.034 233.565 230.05C233.555 230.066 233.542 230.079 233.526 230.089ZM231.981 228.439H231.915C231.713 228.511 231.713 228.596 231.713 228.622C231.713 228.954 232.659 229.574 233.317 229.782C233.165 229.259 232.844 228.8 232.404 228.478C232.273 228.414 232.122 228.4 231.981 228.439Z" fill="#407BFF"/>
<path d="M224.144 94.165L217.344 97.2946L216.555 99.2115L219.065 100.907C219.065 100.907 223.759 100.392 225.096 97.3794L224.144 94.165Z" fill="#E58A7B"/>
<path d="M224.431 98.2227C224.275 96.9169 223.844 95.6591 223.166 94.5324L224.242 93.7305C225.051 95.0268 225.567 96.4844 225.754 98.0011L224.431 98.2227Z" fill="#263238"/>
<path d="M225.592 95.0908C225.736 95.3169 225.806 95.5818 225.794 95.8495C225.782 96.1172 225.688 96.3746 225.524 96.5868C225.36 96.799 225.135 96.9556 224.88 97.0354C224.624 97.1151 224.35 97.1141 224.094 97.0325C223.839 96.951 223.615 96.7927 223.453 96.5794C223.291 96.366 223.199 96.1079 223.188 95.8402C223.178 95.5724 223.251 95.308 223.396 95.0829C223.542 94.8578 223.753 94.683 224.001 94.5822C224.28 94.442 224.603 94.4167 224.9 94.5117C225.198 94.6068 225.446 94.8147 225.592 95.0908Z" fill="#263238"/>
<path d="M212.748 99.8279L213.654 100.741L219.757 98.1327L217.345 97.2981L212.748 99.8279Z" fill="#E58A7B"/>
<path opacity="0.2" d="M238.951 218.993C238.99 218.993 239.877 221.49 239.877 221.49L230.853 225.278L229.432 222.638L238.951 218.993Z" fill="black"/>
<path opacity="0.2" d="M257.396 222.154C257.435 222.154 257.696 224.671 257.696 224.671H247.812L247.107 221.783L257.396 222.154Z" fill="black"/>
<path d="M255.871 68.1315C257.664 73.9082 250.655 81.8235 250.655 81.8235L240.973 77.8723C242.119 74.5273 243.443 71.2453 244.937 68.0402C247.91 61.631 254.058 62.2961 255.871 68.1315Z" fill="#407BFF"/>
<path opacity="0.2" d="M255.871 68.1315C257.664 73.9082 250.655 81.8235 250.655 81.8235L240.973 77.8723C242.119 74.5273 243.443 71.2453 244.937 68.0402C247.91 61.631 254.058 62.2961 255.871 68.1315Z" fill="black"/>
<path d="M159.66 10.1841H155.494V10.8556H159.66V10.1841Z" fill="#407BFF"/>
<path d="M213.596 36.7604L213.092 47.9504L213.763 47.9807L214.267 36.7907L213.596 36.7604Z" fill="#407BFF"/>
<path d="M212.296 13.1981H135.36L128.201 173.408H205.137L212.296 13.1981Z" fill="#407BFF"/>
<path opacity="0.56" d="M210.001 15.3948H133.065L125.906 175.604H202.842L210.001 15.3948Z" fill="#FAFAFA"/>
<path opacity="0.07" d="M207.707 17.5914H130.771L123.605 177.801H200.541L207.707 17.5914Z" fill="#407BFF"/>
<path d="M198.951 87.4651H133.282L132.734 99.7292H198.404L198.951 87.4651Z" fill="white"/>
<path d="M169.395 78.5289H133.679L133.438 84.0123H169.154L169.395 78.5289Z" fill="#407BFF"/>
<path d="M197.471 120.557H131.802L131.254 132.815H196.923L197.471 120.557Z" fill="white"/>
<path opacity="0.47" d="M185.428 149.36H141.268L140.609 164.056H184.769L185.428 149.36Z" fill="#407BFF"/>
<path d="M182.475 166.332H138.315H138.256C138.251 166.312 138.251 166.292 138.256 166.273L138.908 151.577C138.908 151.567 138.91 151.557 138.914 151.548C138.918 151.539 138.924 151.53 138.931 151.524C138.939 151.517 138.947 151.512 138.957 151.509C138.966 151.505 138.976 151.504 138.986 151.505H183.146C183.163 151.499 183.182 151.499 183.199 151.505C183.199 151.505 183.199 151.544 183.199 151.564L182.56 166.26C182.556 166.28 182.546 166.298 182.531 166.312C182.515 166.325 182.495 166.332 182.475 166.332ZM138.393 166.182H182.397L183.049 151.636H139.045L138.393 166.182Z" fill="white"/>
<path d="M161.682 111.608H132.198L131.957 117.091H161.434L161.682 111.608Z" fill="#407BFF"/>
<path d="M184.587 47.8763C184.412 51.4323 183.144 54.8477 180.955 57.6563C179.33 59.7838 177.24 61.511 174.844 62.7056C172.448 63.9001 169.81 64.5303 167.133 64.5479C164.97 64.5653 162.826 64.1395 160.834 63.2968C158.841 62.454 157.042 61.2122 155.548 59.6478C154.054 58.0833 152.896 56.2295 152.146 54.2005C151.395 52.1715 151.068 50.0104 151.185 47.8502C151.414 43.3671 153.348 39.1409 156.59 36.0359C159.832 32.9309 164.137 31.1817 168.626 31.146C170.794 31.1256 172.942 31.5503 174.939 32.3939C176.936 33.2375 178.738 34.4821 180.234 36.0504C181.73 37.6188 182.889 39.4776 183.638 41.5118C184.386 43.5459 184.709 45.7121 184.587 47.8763Z" fill="white"/>
<path d="M186.158 34.6671C186.115 35.6156 185.778 36.5273 185.193 37.2751C184.761 37.8428 184.205 38.3042 183.568 38.624C182.931 38.9438 182.229 39.1135 181.515 39.1203C180.822 39.1251 180.139 38.9594 179.525 38.6376C178.911 38.3158 178.385 37.8479 177.995 37.2751C177.477 36.5068 177.221 35.5923 177.264 34.6671C177.327 33.4751 177.843 32.352 178.706 31.5269C179.568 30.7019 180.713 30.2369 181.907 30.227C182.483 30.2217 183.053 30.3345 183.584 30.5582C184.115 30.7819 184.594 31.112 184.992 31.5279C185.39 31.9439 185.699 32.437 185.9 32.9769C186.1 33.5168 186.188 34.092 186.158 34.6671Z" fill="#407BFF"/>
<path d="M140.356 93.6041C140.325 94.1295 140.095 94.6235 139.714 94.9865C139.333 95.3494 138.829 95.5544 138.302 95.5601C138.048 95.5631 137.796 95.514 137.562 95.4157C137.327 95.3175 137.116 95.1722 136.94 94.9889C136.764 94.8056 136.627 94.5881 136.538 94.3499C136.45 94.1117 136.411 93.8579 136.424 93.6041C136.454 93.0782 136.683 92.5833 137.065 92.22C137.446 91.8567 137.951 91.6522 138.478 91.6481C138.732 91.6469 138.983 91.6974 139.217 91.7963C139.45 91.8952 139.661 92.0405 139.837 92.2234C140.012 92.4063 140.149 92.6231 140.238 92.8604C140.327 93.0978 140.368 93.3508 140.356 93.6041Z" fill="#263238"/>
<path d="M149.144 93.6042C149.115 94.1301 148.886 94.625 148.504 94.9883C148.123 95.3516 147.617 95.5561 147.091 95.5602C146.837 95.5623 146.586 95.5125 146.352 95.4139C146.119 95.3152 145.908 95.1698 145.732 94.9866C145.557 94.8034 145.421 94.5862 145.333 94.3485C145.245 94.1107 145.206 93.8574 145.219 93.6042C145.249 93.0794 145.477 92.5854 145.857 92.2223C146.237 91.8592 146.741 91.654 147.267 91.6482C147.521 91.6452 147.773 91.6943 148.007 91.7925C148.242 91.8908 148.453 92.0361 148.629 92.2194C148.805 92.4027 148.942 92.6202 149.03 92.8584C149.119 93.0966 149.158 93.3504 149.144 93.6042Z" fill="#263238"/>
<path d="M157.94 93.6041C157.91 94.1301 157.681 94.6249 157.3 94.9882C156.918 95.3515 156.413 95.556 155.886 95.5601C155.632 95.5622 155.38 95.5124 155.146 95.4139C154.913 95.3153 154.701 95.17 154.525 94.9869C154.35 94.8037 154.213 94.5866 154.124 94.3489C154.035 94.1111 153.996 93.8577 154.008 93.6041C154.039 93.0787 154.269 92.5848 154.65 92.2218C155.031 91.8588 155.536 91.6538 156.062 91.6481C156.316 91.6461 156.567 91.6958 156.801 91.7944C157.035 91.893 157.247 92.0383 157.422 92.2214C157.598 92.4045 157.735 92.6216 157.824 92.8594C157.913 93.0972 157.952 93.3506 157.94 93.6041Z" fill="#263238"/>
<path d="M138.875 126.687C138.844 127.213 138.615 127.707 138.233 128.069C137.852 128.432 137.348 128.637 136.821 128.643C136.568 128.645 136.316 128.595 136.082 128.497C135.848 128.398 135.637 128.253 135.461 128.07C135.285 127.887 135.149 127.67 135.06 127.432C134.971 127.194 134.931 126.941 134.944 126.687C134.973 126.161 135.202 125.666 135.584 125.303C135.965 124.94 136.471 124.735 136.997 124.731C137.251 124.729 137.503 124.779 137.737 124.877C137.971 124.976 138.182 125.121 138.358 125.304C138.534 125.488 138.67 125.705 138.759 125.942C138.848 126.18 138.888 126.434 138.875 126.687Z" fill="#263238"/>
<path d="M147.664 126.687C147.636 127.213 147.408 127.707 147.028 128.071C146.647 128.434 146.143 128.639 145.617 128.643C145.363 128.646 145.111 128.597 144.876 128.499C144.642 128.401 144.43 128.255 144.254 128.072C144.078 127.889 143.942 127.671 143.853 127.433C143.764 127.195 143.726 126.941 143.739 126.687C143.769 126.161 143.998 125.666 144.379 125.303C144.761 124.94 145.266 124.735 145.793 124.731C146.046 124.729 146.298 124.779 146.531 124.877C146.765 124.976 146.976 125.122 147.151 125.305C147.326 125.488 147.462 125.705 147.55 125.943C147.639 126.181 147.677 126.434 147.664 126.687Z" fill="#263238"/>
<path d="M156.479 126.687C156.449 127.213 156.22 127.708 155.839 128.071C155.457 128.435 154.952 128.639 154.425 128.643C154.171 128.645 153.919 128.596 153.686 128.497C153.452 128.398 153.24 128.253 153.064 128.07C152.889 127.887 152.752 127.67 152.663 127.432C152.574 127.194 152.535 126.941 152.547 126.687C152.578 126.162 152.808 125.668 153.189 125.305C153.57 124.942 154.075 124.737 154.601 124.731C154.855 124.728 155.107 124.777 155.341 124.876C155.576 124.974 155.788 125.119 155.964 125.302C156.14 125.486 156.276 125.703 156.365 125.941C156.453 126.18 156.492 126.433 156.479 126.687Z" fill="#263238"/>
<path d="M165.256 126.687C165.225 127.213 164.995 127.707 164.614 128.069C164.233 128.432 163.729 128.637 163.202 128.643C162.948 128.645 162.697 128.595 162.463 128.497C162.229 128.398 162.018 128.253 161.842 128.07C161.666 127.887 161.529 127.67 161.44 127.432C161.352 127.194 161.312 126.941 161.325 126.687C161.356 126.162 161.585 125.668 161.966 125.305C162.347 124.942 162.852 124.737 163.378 124.731C163.632 124.729 163.884 124.779 164.118 124.877C164.352 124.976 164.563 125.121 164.739 125.304C164.915 125.488 165.051 125.705 165.14 125.942C165.229 126.18 165.269 126.434 165.256 126.687Z" fill="#263238"/>
<path d="M174.083 126.687C174.051 127.213 173.822 127.707 173.441 128.069C173.06 128.432 172.555 128.637 172.029 128.643C171.775 128.646 171.523 128.597 171.288 128.499C171.054 128.401 170.842 128.255 170.666 128.072C170.49 127.889 170.354 127.671 170.265 127.433C170.176 127.195 170.138 126.941 170.151 126.687C170.181 126.161 170.41 125.666 170.791 125.303C171.173 124.94 171.678 124.735 172.205 124.731C172.459 124.729 172.71 124.779 172.944 124.877C173.178 124.976 173.389 125.121 173.565 125.304C173.741 125.488 173.878 125.705 173.967 125.942C174.056 126.18 174.095 126.434 174.083 126.687Z" fill="#263238"/>
<path d="M172.739 47.0046C175.468 44.3359 175.613 40.0583 173.063 37.4504C170.512 34.8424 166.233 34.8916 163.504 37.5603C160.775 40.2289 160.63 44.5065 163.18 47.1145C165.731 49.7224 170.01 49.6732 172.739 47.0046Z" fill="#407BFF"/>
<path d="M180.956 57.6872C179.328 59.8087 177.236 61.5297 174.84 62.7185C172.444 63.9073 169.808 64.5325 167.134 64.5462C164.541 64.5707 161.981 63.9581 159.681 62.7621C157.38 61.5662 155.407 59.8235 153.938 57.6872C157.106 54.5315 162.12 52.4712 167.675 52.4712C173.23 52.4712 178.068 54.5315 180.956 57.6872Z" fill="#407BFF"/>
<path opacity="0.1" d="M172.739 47.0046C175.468 44.3359 175.613 40.0583 173.063 37.4504C170.512 34.8424 166.233 34.8916 163.504 37.5603C160.775 40.2289 160.63 44.5065 163.18 47.1145C165.731 49.7224 170.01 49.6732 172.739 47.0046Z" fill="white"/>
<path opacity="0.1" d="M180.956 57.6872C179.328 59.8087 177.236 61.5297 174.84 62.7185C172.444 63.9073 169.808 64.5325 167.134 64.5462C164.541 64.5707 161.981 63.9581 159.681 62.7621C157.38 61.5662 155.407 59.8235 153.938 57.6872C157.106 54.5315 162.12 52.4712 167.675 52.4712C173.23 52.4712 178.068 54.5315 180.956 57.6872Z" fill="white"/>
<path d="M85.0286 102.683C84.4092 104.04 83.7572 105.526 83.19 106.98C82.6227 108.434 82.0425 109.914 81.5404 111.407C80.5147 114.337 79.734 117.346 79.2063 120.405L79.0628 121.363C79.0491 121.528 79.0646 121.693 79.1085 121.852C79.2613 122.391 79.5037 122.9 79.8257 123.358C80.6617 124.553 81.6331 125.647 82.7205 126.618C83.8658 127.684 85.0672 128.687 86.3196 129.624C87.5714 130.589 88.8885 131.528 90.186 132.415L88.9667 134.697C85.8677 133.354 82.9267 131.672 80.1973 129.683C78.7406 128.62 77.4259 127.376 76.2853 125.979C75.6106 125.147 75.0836 124.206 74.727 123.195C74.5245 122.574 74.4189 121.925 74.4141 121.272C74.4141 121.109 74.4141 120.887 74.4141 120.776V120.45L74.4793 119.798C74.8524 116.401 75.5666 113.051 76.6113 109.797C77.1199 108.186 77.661 106.595 78.2804 105.031C78.8998 103.466 79.5388 101.947 80.3277 100.369L85.0286 102.683Z" fill="#E58A7B"/>
<path d="M89.2655 132.019L93.8751 129.678L92.6819 134.744C92.6819 134.744 89.5197 135.631 88.0527 134.092L89.2655 132.019Z" fill="#E58A7B"/>
<path d="M98.0932 130.514L96.8675 134.7L92.6816 134.746L93.8748 129.686L98.0932 130.514Z" fill="#E58A7B"/>
<path d="M104.602 78.274C104.853 79.1778 105.201 80.0521 105.638 80.882C105.511 81.0258 105.348 81.1326 105.166 81.1911C104.983 81.2497 104.788 81.2578 104.602 81.2146V78.274Z" fill="#DF5753"/>
<path d="M104.464 78.3147C104.734 78.3147 104.953 77.979 104.953 77.5649C104.953 77.1508 104.734 76.8151 104.464 76.8151C104.194 76.8151 103.975 77.1508 103.975 77.5649C103.975 77.979 104.194 78.3147 104.464 78.3147Z" fill="#263238"/>
<path d="M104.32 76.839L105.311 76.5521C105.311 76.5521 104.829 77.328 104.32 76.839Z" fill="#263238"/>
<path d="M91.8666 83.0542C92.4599 86.0925 93.0533 91.6541 90.9277 93.6753C90.9277 93.6753 91.7623 96.7592 97.4021 96.7592C103.603 96.7592 100.362 93.6818 100.362 93.6818C96.9783 92.8733 97.063 90.3566 97.6564 88.0029L91.8666 83.0542Z" fill="#E58A7B"/>
<path d="M90.2173 76.1484C90.5303 81.2145 90.5564 83.3661 93.1122 85.9675C96.9655 89.8795 103.12 88.3865 104.327 83.3595C105.415 78.7955 104.724 71.2845 99.7626 69.2633C98.6729 68.8162 97.4872 68.6542 96.3175 68.7926C95.1478 68.9311 94.0327 69.3653 93.0774 70.0543C92.1221 70.7434 91.3582 71.6645 90.8578 72.7308C90.3574 73.7971 90.1369 74.9733 90.2173 76.1484Z" fill="#E58A7B"/>
<path d="M90.7208 70.4183C88.178 71.3441 84.7876 70.653 86.1177 78.4965C87.526 86.7965 85.3613 89.5284 85.3613 89.5284C85.3613 89.5284 95.0044 91.5887 104.85 89.411C104.85 89.411 101.844 84.1494 102.685 80.3156C103.761 75.4256 102.913 73.6196 102.913 73.6196C102.913 73.6196 94.2937 69.1143 90.7208 70.4183Z" fill="#263238"/>
<path d="M101.479 78.789C101.481 79.7522 101.757 80.695 102.274 81.5078C102.965 82.5641 103.78 82.1598 103.982 81.0384C104.165 80.0473 104.028 78.3065 103.148 77.6349C102.267 76.9634 101.492 77.6414 101.479 78.789Z" fill="#E58A7B"/>
<path d="M88.5092 71.3063C87.779 69.2525 91.2607 66.0903 98.6283 67.3943C105.996 68.6983 106.315 74.8271 106.315 74.8271L104.829 73.0602L104.894 74.9249L97.3243 76.3789L88.5092 71.3063Z" fill="#263238"/>
<path d="M89.136 94.0232C89.0908 93.7252 89.1646 93.4214 89.3415 93.1774C89.5184 92.9334 89.7842 92.7688 90.0814 92.7192C92.3765 92.341 97.5925 91.5716 100.214 91.9368C102.17 92.2041 102.678 93.3451 102.763 94.2774C102.776 94.4407 102.754 94.6049 102.699 94.759C102.643 94.9131 102.556 95.0536 102.441 95.171C102.327 95.2883 102.189 95.3798 102.036 95.4394C101.884 95.499 101.72 95.5252 101.557 95.5162L90.2249 95.0077C89.9577 94.9942 89.7034 94.8888 89.505 94.7094C89.3066 94.53 89.1763 94.2876 89.136 94.0232Z" fill="#407BFF"/>
<path opacity="0.6" d="M89.136 94.0232C89.0908 93.7252 89.1646 93.4214 89.3415 93.1774C89.5184 92.9334 89.7842 92.7688 90.0814 92.7192C92.3765 92.341 97.5925 91.5716 100.214 91.9368C102.17 92.2041 102.678 93.3451 102.763 94.2774C102.776 94.4407 102.754 94.6049 102.699 94.759C102.643 94.9131 102.556 95.0536 102.441 95.171C102.327 95.2883 102.189 95.3798 102.036 95.4394C101.884 95.499 101.72 95.5252 101.557 95.5162L90.2249 95.0077C89.9577 94.9942 89.7034 94.8888 89.505 94.7094C89.3066 94.53 89.1763 94.2876 89.136 94.0232Z" fill="black"/>
<path d="M95.6875 207.93L99.8929 210.845L106.928 201.313L102.723 198.392L95.6875 207.93Z" fill="#E58A7B"/>
<path d="M85.8828 207.735L90.3229 210.272L96.5495 200.185L92.1094 197.649L85.8828 207.735Z" fill="#E58A7B"/>
<path d="M106.922 201.315L103.297 206.231L99.0918 203.31L102.717 198.401L106.922 201.315Z" fill="#CF6F64"/>
<path d="M92.1024 197.653L96.549 200.183L93.3412 205.379L88.8945 202.85L92.1024 197.653Z" fill="#CF6F64"/>
<path d="M99.2349 125.838C99.2349 125.838 115.652 146.526 112.568 166.314C110.084 182.294 95.675 203.934 95.675 203.934L88.9007 200.57C93.6756 191.002 97.7504 181.1 101.093 170.943C102.124 167.789 102.425 164.443 101.973 161.156C101.521 157.869 100.328 154.728 98.4851 151.97C90.1655 139.823 76.8387 147.047 85.8037 125.838H99.2349Z" fill="#407BFF"/>
<path opacity="0.6" d="M99.2349 125.838C99.2349 125.838 115.652 146.526 112.568 166.314C110.084 182.294 95.675 203.934 95.675 203.934L88.9007 200.57C93.6756 191.002 97.7504 181.1 101.093 170.943C102.124 167.789 102.425 164.443 101.973 161.156C101.521 157.869 100.328 154.728 98.4851 151.97C90.1655 139.823 76.8387 147.047 85.8037 125.838H99.2349Z" fill="black"/>
<path opacity="0.4" d="M107.287 139.16L104.9 136.786C104.9 136.975 109.523 165.507 110.821 173.527C111.586 171.184 112.172 168.786 112.574 166.355C114.1 156.653 110.912 146.742 107.287 139.16Z" fill="black"/>
<path d="M106.564 125.838C106.564 125.838 126.333 151.839 126.893 167.429C127.356 180.469 105.377 205.734 105.377 205.734L98.9878 201.6C98.9878 201.6 111.852 183.657 115.092 169C113.84 154.526 87.3691 125.838 87.3691 125.838H106.564Z" fill="#407BFF"/>
<path opacity="0.6" d="M106.564 125.838C106.564 125.838 126.333 151.839 126.893 167.429C127.356 180.469 105.377 205.734 105.377 205.734L98.9878 201.6C98.9878 201.6 111.852 183.657 115.092 169C113.84 154.526 87.3691 125.838 87.3691 125.838H106.564Z" fill="black"/>
<path d="M82.107 94.8436C79.9945 95.3391 77.9668 103.026 77.9668 103.026L86.2276 108.536C86.2276 108.536 88.9791 102.465 88.0141 99.8053C87.0166 97.0343 84.7606 94.2112 82.107 94.8436Z" fill="#407BFF"/>
<path opacity="0.2" d="M83.7242 99.7584L83.1504 106.454L86.2213 108.515C87.0681 106.605 87.6958 104.606 88.0926 102.555L83.7242 99.7584Z" fill="black"/>
<path d="M109.009 94.9832C109.009 94.9832 111.447 95.8438 106.564 125.862H85.7912C86.1433 117.386 86.1498 112.17 82.1074 94.8398C85.0162 94.24 87.9643 93.85 90.929 93.6727C94.0699 93.4506 97.2225 93.4506 100.363 93.6727C104.419 94.0443 109.009 94.9832 109.009 94.9832Z" fill="#407BFF"/>
<path d="M111.12 99.7598C111.589 101.064 112.085 102.472 112.606 103.822C113.128 105.171 113.624 106.56 114.152 107.923L115.749 112.017L116.153 113.041L116.362 113.556L116.46 113.81C116.46 113.856 116.46 113.856 116.46 113.849C116.34 113.68 116.184 113.54 116.003 113.439C115.746 113.286 115.455 113.201 115.156 113.191C114.908 113.182 114.661 113.226 114.432 113.321C114.132 113.465 114.132 113.523 114.139 113.517C114.191 113.472 114.239 113.421 114.282 113.367C114.642 112.892 114.954 112.383 115.214 111.848C115.521 111.248 115.814 110.609 116.108 109.964C116.681 108.66 117.21 107.31 117.738 105.947C118.266 104.585 118.768 103.202 119.257 101.82L120.743 97.6538L123.254 98.3058C122.758 101.279 122.119 104.174 121.35 107.121C120.978 108.588 120.541 110.042 120.046 111.509C119.798 112.239 119.524 112.976 119.211 113.719C118.887 114.536 118.485 115.319 118.012 116.06C117.838 116.308 117.646 116.544 117.438 116.764C117.103 117.122 116.699 117.408 116.251 117.605C115.852 117.776 115.42 117.856 114.986 117.84C114.5 117.819 114.026 117.676 113.611 117.422C113.119 117.12 112.711 116.698 112.424 116.197C112.326 116.027 112.241 115.858 112.183 115.734L112.059 115.479L111.811 114.977L111.315 113.96C110.663 112.604 110.011 111.241 109.444 109.866C108.877 108.49 108.277 107.088 107.716 105.693C107.156 104.298 106.654 102.889 106.178 101.377L111.12 99.7598Z" fill="#E58A7B"/>
<path d="M109.008 94.9865C111.505 95.5863 114.316 102.96 114.316 102.96L106.889 109.285C106.889 109.285 102.084 101.239 103.055 98.5855C104.066 95.8471 105.748 94.2106 109.008 94.9865Z" fill="#407BFF"/>
<path d="M121.925 95.3502L124.533 93.1725L126.346 95.9891L125.009 98.3494C125.009 98.3494 122.884 100.305 121.006 99.3078C120.708 98.6379 120.636 97.8891 120.802 97.1749C120.968 96.4607 121.362 95.8201 121.925 95.3502Z" fill="#E58A7B"/>
<path d="M129.241 93.179L129.045 93.8832L124.918 94.5808L124.514 93.1725L129.241 93.179Z" fill="#E58A7B"/>
<path d="M105.885 206.1L98.4395 201.282L99.7761 198.968L108.141 204.112L105.885 206.1Z" fill="#407BFF"/>
<path d="M93.237 209.947C92.583 209.87 91.9547 209.648 91.3984 209.295C91.3762 209.286 91.3578 209.269 91.346 209.248C91.3342 209.226 91.3297 209.202 91.3332 209.178C91.3371 209.155 91.347 209.133 91.3619 209.115C91.3767 209.096 91.396 209.082 91.4179 209.074C91.6201 209.015 93.3739 208.474 93.8825 208.891C93.9397 208.937 93.9832 208.998 94.0085 209.067C94.0338 209.136 94.0398 209.21 94.0259 209.282C94.0173 209.401 93.9787 209.515 93.9137 209.614C93.8486 209.713 93.7594 209.794 93.6543 209.849C93.5246 209.914 93.3818 209.947 93.237 209.947ZM91.77 209.237C92.585 209.647 93.237 209.804 93.55 209.647C93.619 209.609 93.677 209.553 93.7181 209.486C93.7593 209.419 93.7822 209.342 93.7847 209.263C93.7935 209.232 93.7925 209.199 93.7821 209.169C93.7716 209.138 93.752 209.112 93.726 209.093C93.4522 208.852 92.4742 209.021 91.757 209.217L91.77 209.237Z" fill="#263238"/>
<path d="M91.444 209.294C91.4096 209.294 91.3768 209.28 91.3527 209.255C91.343 209.237 91.3379 209.217 91.3379 209.196C91.3379 209.176 91.343 209.156 91.3527 209.138C91.3527 209.079 91.7765 207.664 92.4415 207.338C92.5265 207.299 92.6187 207.279 92.7121 207.279C92.8055 207.279 92.8977 207.299 92.9827 207.338C93.0742 207.367 93.1535 207.426 93.2078 207.505C93.2622 207.584 93.2885 207.679 93.2826 207.775C93.237 208.362 92.0438 209.17 91.4961 209.301L91.444 209.294ZM92.7088 207.514C92.645 207.513 92.582 207.529 92.5263 207.56C92.122 207.749 91.7895 208.518 91.6265 208.981C92.2003 208.74 92.9892 208.101 93.0153 207.742C93.0153 207.684 93.0153 207.606 92.8653 207.547C92.8146 207.532 92.7617 207.525 92.7088 207.527V207.514Z" fill="#263238"/>
<path d="M102.54 212.742C101.804 212.742 100.78 211.803 100.219 211.223C100.205 211.203 100.197 211.179 100.197 211.154C100.197 211.13 100.205 211.106 100.219 211.086C100.232 211.064 100.25 211.046 100.272 211.033C100.293 211.021 100.318 211.014 100.343 211.014C100.604 211.053 102.866 211.353 103.186 211.998C103.22 212.056 103.238 212.121 103.238 212.188C103.238 212.254 103.22 212.319 103.186 212.377C103.138 212.476 103.066 212.562 102.975 212.626C102.885 212.69 102.781 212.729 102.671 212.742H102.54ZM100.65 211.307C101.471 212.109 102.195 212.553 102.606 212.5C102.678 212.491 102.746 212.464 102.805 212.422C102.864 212.38 102.912 212.324 102.945 212.259C102.959 212.236 102.967 212.209 102.967 212.181C102.967 212.153 102.959 212.126 102.945 212.103C102.775 211.757 101.569 211.457 100.65 211.307Z" fill="#263238"/>
<path d="M100.721 211.288C100.574 211.292 100.428 211.281 100.284 211.255C100.263 211.251 100.244 211.242 100.228 211.228C100.212 211.214 100.2 211.197 100.193 211.177C100.183 211.159 100.178 211.139 100.178 211.119C100.178 211.098 100.183 211.078 100.193 211.06C100.232 211.014 101.112 209.951 101.946 209.88C102.063 209.869 102.182 209.882 102.294 209.918C102.405 209.954 102.509 210.012 102.598 210.088C102.853 210.31 102.84 210.506 102.774 210.63C102.611 211.066 101.483 211.288 100.721 211.288ZM100.551 211.047C101.281 211.086 102.448 210.845 102.598 210.525C102.598 210.525 102.651 210.421 102.481 210.271C102.413 210.213 102.334 210.17 102.249 210.145C102.164 210.119 102.074 210.111 101.986 210.121C101.422 210.271 100.92 210.595 100.551 211.047Z" fill="#263238"/>
<path d="M91.6193 208.643L86.0903 207.078C85.9958 207.049 85.8938 207.055 85.8037 207.096C85.7136 207.137 85.6416 207.209 85.6013 207.3L83.7366 211.499C83.6928 211.606 83.6723 211.722 83.6763 211.837C83.6803 211.953 83.7088 212.067 83.7599 212.171C83.811 212.275 83.8836 212.367 83.9729 212.441C84.0621 212.515 84.166 212.57 84.2778 212.601C86.2338 213.109 87.1726 213.253 89.6046 213.944C91.1042 214.368 93.2428 215.143 95.3096 215.724C97.3764 216.304 98.0676 214.296 97.2656 213.872C93.6405 211.949 93.3536 210.612 92.3626 209.178C92.1876 208.915 91.9235 208.726 91.6193 208.643Z" fill="#407BFF"/>
<path d="M100.369 210.459L95.6481 207.199C95.5668 207.143 95.468 207.118 95.3698 207.128C95.2717 207.139 95.1806 207.185 95.1135 207.257L91.9839 210.615C91.9075 210.703 91.8505 210.805 91.8167 210.917C91.783 211.028 91.7731 211.145 91.7879 211.26C91.8027 211.375 91.8418 211.486 91.9025 211.585C91.9633 211.684 92.0443 211.769 92.1403 211.834C93.8029 212.943 94.6636 213.399 96.7435 214.84C98.0475 215.727 100.571 217.696 102.331 218.922C104.091 220.147 105.402 218.465 104.776 217.8C101.972 214.801 101.36 212.923 100.897 211.221C100.817 210.912 100.63 210.642 100.369 210.459Z" fill="#407BFF"/>
<path d="M96.5418 204.388L88.0332 200.157L88.9134 197.855L98.0023 202.309L96.5418 204.388Z" fill="#407BFF"/>
<path d="M85.4779 124.646L84.7607 126.491C84.689 126.634 84.8585 126.778 85.0998 126.778H106.668C106.857 126.778 107.013 126.687 107.027 126.569L107.209 124.711C107.209 124.581 107.059 124.476 106.857 124.476H85.817C85.7505 124.472 85.6842 124.486 85.6247 124.516C85.5652 124.545 85.5145 124.59 85.4779 124.646Z" fill="#407BFF"/>
<path opacity="0.4" d="M85.4779 124.646L84.7607 126.491C84.689 126.634 84.8585 126.778 85.0998 126.778H106.668C106.857 126.778 107.013 126.687 107.027 126.569L107.209 124.711C107.209 124.581 107.059 124.476 106.857 124.476H85.817C85.7505 124.472 85.6842 124.486 85.6247 124.516C85.5652 124.545 85.5145 124.59 85.4779 124.646Z" fill="white"/>
<path d="M88.8739 126.991H88.3066C88.1958 126.991 88.111 126.939 88.1175 126.867L88.3849 124.448C88.3849 124.376 88.4892 124.318 88.6 124.318H89.1673C89.2781 124.318 89.3629 124.376 89.3563 124.448L89.089 126.867C89.0825 126.939 88.9847 126.991 88.8739 126.991Z" fill="#407BFF"/>
<path d="M102.176 126.991H101.615C101.504 126.991 101.42 126.939 101.426 126.867L101.687 124.448C101.687 124.376 101.798 124.318 101.909 124.318H102.469C102.58 124.318 102.671 124.376 102.658 124.448L102.398 126.867C102.365 126.939 102.293 126.991 102.176 126.991Z" fill="#407BFF"/>
<g style="mix-blend-mode:multiply">
<path d="M88.3792 237.414C98.026 237.414 105.846 236.847 105.846 236.149C105.846 235.45 98.026 234.884 88.3792 234.884C78.7324 234.884 70.9121 235.45 70.9121 236.149C70.9121 236.847 78.7324 237.414 88.3792 237.414Z" fill="#F5F5F5"/>
</g>
<path d="M99.0191 234.361C95.9286 233.461 92.4991 232.307 90.4257 231.101L90.2432 231.016V217.018H96.4958C96.9705 216.99 97.4165 216.781 97.7426 216.435C98.0687 216.089 98.2503 215.632 98.2503 215.156C98.2503 214.681 98.0687 214.223 97.7426 213.877C97.4165 213.531 96.9705 213.323 96.4958 213.295H90.2758V149.51H86.5202V213.295H80.3067C80.053 213.28 79.7989 213.317 79.56 213.404C79.3211 213.49 79.1024 213.625 78.9175 213.799C78.7325 213.974 78.5851 214.184 78.4844 214.417C78.3837 214.651 78.3317 214.902 78.3317 215.156C78.3317 215.41 78.3837 215.662 78.4844 215.895C78.5851 216.129 78.7325 216.339 78.9175 216.513C79.1024 216.688 79.3211 216.822 79.56 216.909C79.7989 216.996 80.053 217.033 80.3067 217.018H86.5202V230.99L86.3442 231.075C84.2382 232.307 80.8348 233.461 77.7443 234.335C77.5356 234.398 77.3563 234.534 77.239 234.718C77.1217 234.901 77.0741 235.121 77.1048 235.337C77.1355 235.553 77.2426 235.751 77.4065 235.895C77.5705 236.039 77.7805 236.119 77.9986 236.121H98.7648C98.9704 236.104 99.1641 236.018 99.3143 235.876C99.4645 235.735 99.5623 235.546 99.5918 235.342C99.6213 235.138 99.5808 234.93 99.4768 234.752C99.3727 234.573 99.2114 234.436 99.0191 234.361Z" fill="#E0E0E0"/>
<path d="M99.9785 143.021H76.7934C74.9281 143.021 73.416 144.533 73.416 146.398V153.29C73.416 155.155 74.9281 156.667 76.7934 156.667H99.9785C101.844 156.667 103.356 155.155 103.356 153.29V146.398C103.356 144.533 101.844 143.021 99.9785 143.021Z" fill="#407BFF"/>
<path d="M76.5781 156.671V157.858C76.5781 158.836 77.6409 159.638 78.9449 159.638H97.8529C99.1569 159.638 100.22 158.836 100.22 157.858V156.671H76.5781Z" fill="#407BFF"/>
<path opacity="0.3" d="M76.5781 156.671V157.858C76.5781 158.836 77.6409 159.638 78.9449 159.638H97.8529C99.1569 159.638 100.22 158.836 100.22 157.858V156.671H76.5781Z" fill="white"/>
</svg>
